<mxfile host="app.diagrams.net" agent="Mozilla/5.0 (Windows NT 10.0; Win64; x64) AppleWebKit/537.36 (KHTML, like Gecko) Chrome/131.0.0.0 Safari/537.36" version="24.8.6">
  <diagram name="Página-1" id="nO4dyLtkWWFszEF5V130">
    <mxGraphModel grid="1" page="1" gridSize="10" guides="1" tooltips="1" connect="1" arrows="1" fold="1" pageScale="1" pageWidth="827" pageHeight="1169" math="0" shadow="0">
      <root>
        <mxCell id="0" />
        <mxCell id="1" parent="0" />
        <mxCell id="rRiMbHwOaoXDCCzmKBcc-1" value="Pokemon" style="swimlane;whiteSpace=wrap;html=1;" vertex="1" parent="1">
          <mxGeometry x="520" y="50" width="250" height="210" as="geometry" />
        </mxCell>
        <mxCell id="rRiMbHwOaoXDCCzmKBcc-2" value="&lt;u&gt;Id_Pokemon&lt;/u&gt;&lt;div&gt;nome_Pokemon&lt;/div&gt;&lt;div&gt;Tipagem_1&lt;/div&gt;&lt;div&gt;Tipagem_2&lt;/div&gt;&lt;div&gt;Abilidade&lt;/div&gt;&lt;div&gt;especie&lt;/div&gt;&lt;div&gt;HP&lt;/div&gt;&lt;div&gt;Ataque&lt;/div&gt;&lt;div&gt;Defesa&lt;/div&gt;&lt;div&gt;Ataque_especial&lt;/div&gt;&lt;div&gt;Defesa_Especial&lt;/div&gt;&lt;div&gt;Velocidade&lt;/div&gt;&lt;div&gt;Peso&lt;/div&gt;&lt;div&gt;&lt;br&gt;&lt;/div&gt;" style="text;html=1;align=left;verticalAlign=middle;whiteSpace=wrap;rounded=0;" vertex="1" parent="rRiMbHwOaoXDCCzmKBcc-1">
          <mxGeometry x="6" y="100" width="60" height="50" as="geometry" />
        </mxCell>
        <mxCell id="rRiMbHwOaoXDCCzmKBcc-18" value="" style="endArrow=none;html=1;rounded=0;" edge="1" parent="rRiMbHwOaoXDCCzmKBcc-1">
          <mxGeometry width="50" height="50" relative="1" as="geometry">
            <mxPoint x="100" y="210" as="sourcePoint" />
            <mxPoint x="100" y="30" as="targetPoint" />
          </mxGeometry>
        </mxCell>
        <mxCell id="rRiMbHwOaoXDCCzmKBcc-19" value="int&amp;nbsp;&lt;div&gt;varchar(20)&lt;/div&gt;&lt;div&gt;varchar(10)&lt;/div&gt;&lt;div&gt;boolean(10)&lt;/div&gt;&lt;div&gt;text(50)&lt;/div&gt;&lt;div&gt;ENUM(&#39;Comum, &#39;lendário&#39;)&lt;/div&gt;&lt;div&gt;int&lt;/div&gt;&lt;div&gt;int&lt;/div&gt;&lt;div&gt;int&lt;/div&gt;&lt;div&gt;int&lt;/div&gt;&lt;div&gt;int&lt;/div&gt;&lt;div&gt;int&lt;/div&gt;&lt;div&gt;float&lt;/div&gt;" style="text;html=1;align=center;verticalAlign=middle;whiteSpace=wrap;rounded=0;" vertex="1" parent="rRiMbHwOaoXDCCzmKBcc-1">
          <mxGeometry x="100" y="100" width="160" height="30" as="geometry" />
        </mxCell>
        <mxCell id="rRiMbHwOaoXDCCzmKBcc-27" style="edgeStyle=orthogonalEdgeStyle;rounded=0;orthogonalLoop=1;jettySize=auto;html=1;" edge="1" parent="rRiMbHwOaoXDCCzmKBcc-1" source="rRiMbHwOaoXDCCzmKBcc-19" target="rRiMbHwOaoXDCCzmKBcc-19">
          <mxGeometry relative="1" as="geometry" />
        </mxCell>
        <mxCell id="rRiMbHwOaoXDCCzmKBcc-3" style="edgeStyle=orthogonalEdgeStyle;rounded=0;orthogonalLoop=1;jettySize=auto;html=1;exitX=0.5;exitY=1;exitDx=0;exitDy=0;endArrow=ERmany;endFill=0;" edge="1" parent="1" source="rRiMbHwOaoXDCCzmKBcc-4" target="rRiMbHwOaoXDCCzmKBcc-7">
          <mxGeometry relative="1" as="geometry" />
        </mxCell>
        <mxCell id="rRiMbHwOaoXDCCzmKBcc-4" value="Treinador" style="swimlane;whiteSpace=wrap;html=1;" vertex="1" parent="1">
          <mxGeometry x="220" y="130" width="180" height="100" as="geometry" />
        </mxCell>
        <mxCell id="rRiMbHwOaoXDCCzmKBcc-5" value="&lt;u&gt;id_treinador&lt;/u&gt;&lt;div&gt;Nome_treinador&lt;/div&gt;&lt;div&gt;região_treinador&lt;/div&gt;" style="text;html=1;align=left;verticalAlign=middle;whiteSpace=wrap;rounded=0;" vertex="1" parent="rRiMbHwOaoXDCCzmKBcc-4">
          <mxGeometry x="3" y="40" width="60" height="30" as="geometry" />
        </mxCell>
        <mxCell id="rRiMbHwOaoXDCCzmKBcc-15" value="" style="endArrow=none;html=1;rounded=0;" edge="1" parent="rRiMbHwOaoXDCCzmKBcc-4">
          <mxGeometry width="50" height="50" relative="1" as="geometry">
            <mxPoint x="110" y="100" as="sourcePoint" />
            <mxPoint x="110" y="20" as="targetPoint" />
          </mxGeometry>
        </mxCell>
        <mxCell id="rRiMbHwOaoXDCCzmKBcc-20" value="int&lt;div&gt;varchar(50)&lt;/div&gt;&lt;div&gt;varchar(50)&lt;/div&gt;" style="text;html=1;align=center;verticalAlign=middle;whiteSpace=wrap;rounded=0;" vertex="1" parent="rRiMbHwOaoXDCCzmKBcc-4">
          <mxGeometry x="112" y="40" width="60" height="30" as="geometry" />
        </mxCell>
        <mxCell id="WK4ng-PkhOE55X_2k_zc-13" value="Rank" style="text;html=1;align=center;verticalAlign=middle;whiteSpace=wrap;rounded=0;" vertex="1" parent="rRiMbHwOaoXDCCzmKBcc-4">
          <mxGeometry x="-10" y="70" width="60" height="30" as="geometry" />
        </mxCell>
        <mxCell id="WK4ng-PkhOE55X_2k_zc-14" value="boolean(20)" style="text;html=1;align=center;verticalAlign=middle;whiteSpace=wrap;rounded=0;" vertex="1" parent="rRiMbHwOaoXDCCzmKBcc-4">
          <mxGeometry x="114" y="70" width="60" height="30" as="geometry" />
        </mxCell>
        <mxCell id="rRiMbHwOaoXDCCzmKBcc-6" style="edgeStyle=orthogonalEdgeStyle;rounded=0;orthogonalLoop=1;jettySize=auto;html=1;exitX=1;exitY=0.5;exitDx=0;exitDy=0;entryX=0;entryY=0.5;entryDx=0;entryDy=0;endArrow=ERmany;endFill=0;startArrow=ERmany;startFill=0;" edge="1" parent="1" source="rRiMbHwOaoXDCCzmKBcc-7" target="rRiMbHwOaoXDCCzmKBcc-9">
          <mxGeometry relative="1" as="geometry" />
        </mxCell>
        <mxCell id="rRiMbHwOaoXDCCzmKBcc-7" value="Time" style="swimlane;whiteSpace=wrap;html=1;" vertex="1" parent="1">
          <mxGeometry x="200" y="370" width="170" height="90" as="geometry" />
        </mxCell>
        <mxCell id="rRiMbHwOaoXDCCzmKBcc-8" value="&lt;u&gt;id_time&lt;/u&gt;&lt;div&gt;nome_time&lt;/div&gt;&lt;div&gt;id_treinador&lt;/div&gt;" style="text;html=1;align=left;verticalAlign=middle;whiteSpace=wrap;rounded=0;" vertex="1" parent="rRiMbHwOaoXDCCzmKBcc-7">
          <mxGeometry x="7" y="42" width="60" height="30" as="geometry" />
        </mxCell>
        <mxCell id="rRiMbHwOaoXDCCzmKBcc-16" value="" style="endArrow=none;html=1;rounded=0;" edge="1" parent="rRiMbHwOaoXDCCzmKBcc-7">
          <mxGeometry width="50" height="50" relative="1" as="geometry">
            <mxPoint x="100" y="92" as="sourcePoint" />
            <mxPoint x="100" y="22" as="targetPoint" />
          </mxGeometry>
        </mxCell>
        <mxCell id="rRiMbHwOaoXDCCzmKBcc-22" value="int&lt;div&gt;varchar(15)&lt;/div&gt;&lt;div&gt;int&lt;/div&gt;" style="text;html=1;align=center;verticalAlign=middle;whiteSpace=wrap;rounded=0;" vertex="1" parent="rRiMbHwOaoXDCCzmKBcc-7">
          <mxGeometry x="104" y="42" width="60" height="30" as="geometry" />
        </mxCell>
        <mxCell id="rRiMbHwOaoXDCCzmKBcc-9" value="Time_Pokemon" style="swimlane;whiteSpace=wrap;html=1;" vertex="1" parent="1">
          <mxGeometry x="510" y="370" width="140" height="80" as="geometry" />
        </mxCell>
        <mxCell id="rRiMbHwOaoXDCCzmKBcc-10" value="&lt;u&gt;id_time&lt;/u&gt;&lt;div&gt;id_pokemon&lt;/div&gt;&lt;div&gt;&lt;u&gt;posicao&lt;/u&gt;&lt;/div&gt;" style="text;html=1;align=left;verticalAlign=middle;whiteSpace=wrap;rounded=0;" vertex="1" parent="rRiMbHwOaoXDCCzmKBcc-9">
          <mxGeometry x="6" y="35" width="60" height="30" as="geometry" />
        </mxCell>
        <mxCell id="rRiMbHwOaoXDCCzmKBcc-17" value="" style="endArrow=none;html=1;rounded=0;" edge="1" parent="rRiMbHwOaoXDCCzmKBcc-9">
          <mxGeometry width="50" height="50" relative="1" as="geometry">
            <mxPoint x="90" y="92" as="sourcePoint" />
            <mxPoint x="90" y="22" as="targetPoint" />
          </mxGeometry>
        </mxCell>
        <mxCell id="rRiMbHwOaoXDCCzmKBcc-23" value="int&lt;div&gt;int&lt;/div&gt;&lt;div&gt;int&lt;/div&gt;" style="text;html=1;align=center;verticalAlign=middle;whiteSpace=wrap;rounded=0;" vertex="1" parent="rRiMbHwOaoXDCCzmKBcc-9">
          <mxGeometry x="80" y="35" width="60" height="30" as="geometry" />
        </mxCell>
        <mxCell id="rRiMbHwOaoXDCCzmKBcc-11" value="&#xa;&lt;span style=&quot;color: rgb(232, 230, 227); font-family: Helvetica; font-size: 12px; font-style: normal; font-variant-ligatures: normal; font-variant-caps: normal; font-weight: 400; letter-spacing: normal; orphans: 2; text-align: center; text-indent: 0px; text-transform: none; widows: 2; word-spacing: 0px; -webkit-text-stroke-width: 0px; white-space: normal; background-color: rgb(26, 28, 30); text-decoration-thickness: initial; text-decoration-style: initial; text-decoration-color: initial; display: inline !important; float: none;&quot;&gt;Possui&lt;/span&gt;&#xa;&#xa;" style="text;html=1;align=center;verticalAlign=middle;whiteSpace=wrap;rounded=0;" vertex="1" parent="1">
          <mxGeometry x="300" y="280" width="60" height="30" as="geometry" />
        </mxCell>
        <mxCell id="rRiMbHwOaoXDCCzmKBcc-12" value="Contem" style="text;html=1;align=center;verticalAlign=middle;whiteSpace=wrap;rounded=0;" vertex="1" parent="1">
          <mxGeometry x="410" y="380" width="60" height="30" as="geometry" />
        </mxCell>
        <mxCell id="rRiMbHwOaoXDCCzmKBcc-13" style="edgeStyle=orthogonalEdgeStyle;rounded=0;orthogonalLoop=1;jettySize=auto;html=1;entryX=0.543;entryY=0.016;entryDx=0;entryDy=0;entryPerimeter=0;startArrow=ERmany;startFill=0;endArrow=ERmany;endFill=0;" edge="1" parent="1" source="rRiMbHwOaoXDCCzmKBcc-1" target="rRiMbHwOaoXDCCzmKBcc-9">
          <mxGeometry relative="1" as="geometry" />
        </mxCell>
        <mxCell id="rRiMbHwOaoXDCCzmKBcc-14" value="É membro de&amp;nbsp;" style="text;html=1;align=center;verticalAlign=middle;whiteSpace=wrap;rounded=0;" vertex="1" parent="1">
          <mxGeometry x="600" y="300" width="90" height="30" as="geometry" />
        </mxCell>
        <mxCell id="WK4ng-PkhOE55X_2k_zc-6" style="edgeStyle=orthogonalEdgeStyle;rounded=0;orthogonalLoop=1;jettySize=auto;html=1;exitX=0.5;exitY=1;exitDx=0;exitDy=0;" edge="1" parent="1" source="WK4ng-PkhOE55X_2k_zc-2">
          <mxGeometry relative="1" as="geometry">
            <mxPoint x="520" y="130" as="targetPoint" />
            <Array as="points">
              <mxPoint x="380" y="105" />
              <mxPoint x="461" y="105" />
            </Array>
          </mxGeometry>
        </mxCell>
        <mxCell id="WK4ng-PkhOE55X_2k_zc-2" value="Movepool" style="swimlane;whiteSpace=wrap;html=1;" vertex="1" parent="1">
          <mxGeometry x="280" y="-10" width="150" height="100" as="geometry" />
        </mxCell>
        <mxCell id="WK4ng-PkhOE55X_2k_zc-3" value="&lt;u&gt;Id_pokemon&lt;/u&gt;" style="text;html=1;align=center;verticalAlign=middle;whiteSpace=wrap;rounded=0;" vertex="1" parent="WK4ng-PkhOE55X_2k_zc-2">
          <mxGeometry x="7" y="50" width="60" height="30" as="geometry" />
        </mxCell>
        <mxCell id="WK4ng-PkhOE55X_2k_zc-4" value="Movepool" style="text;html=1;align=center;verticalAlign=middle;whiteSpace=wrap;rounded=0;" vertex="1" parent="WK4ng-PkhOE55X_2k_zc-2">
          <mxGeometry x="7" y="71" width="60" height="30" as="geometry" />
        </mxCell>
        <mxCell id="WK4ng-PkhOE55X_2k_zc-5" value="" style="endArrow=none;html=1;rounded=0;" edge="1" parent="WK4ng-PkhOE55X_2k_zc-2">
          <mxGeometry width="50" height="50" relative="1" as="geometry">
            <mxPoint x="80" y="100" as="sourcePoint" />
            <mxPoint x="80" y="20" as="targetPoint" />
          </mxGeometry>
        </mxCell>
        <mxCell id="WK4ng-PkhOE55X_2k_zc-12" value="&lt;u&gt;Id_Movepoll&lt;/u&gt;" style="text;html=1;align=center;verticalAlign=middle;whiteSpace=wrap;rounded=0;" vertex="1" parent="WK4ng-PkhOE55X_2k_zc-2">
          <mxGeometry x="7" y="30" width="60" height="30" as="geometry" />
        </mxCell>
        <mxCell id="WK4ng-PkhOE55X_2k_zc-16" value="int&lt;div style=&quot;font-size: 14px;&quot;&gt;int&lt;/div&gt;&lt;div style=&quot;font-size: 14px;&quot;&gt;boolean(50&lt;/div&gt;" style="text;html=1;align=center;verticalAlign=middle;whiteSpace=wrap;rounded=0;strokeWidth=6;fontSize=14;" vertex="1" parent="WK4ng-PkhOE55X_2k_zc-2">
          <mxGeometry x="90" y="50" width="60" height="40" as="geometry" />
        </mxCell>
        <mxCell id="WK4ng-PkhOE55X_2k_zc-7" value="Possui" style="text;html=1;align=center;verticalAlign=middle;whiteSpace=wrap;rounded=0;" vertex="1" parent="1">
          <mxGeometry x="400" y="100" width="60" height="30" as="geometry" />
        </mxCell>
      </root>
    </mxGraphModel>
  </diagram>
</mxfile>
